<svg xmlns="http://www.w3.org/2000/svg" viewBox="0 0 128 128" fill="none">
  <defs>
    <linearGradient id="mist" x1="26" y1="19" x2="104" y2="111" gradientUnits="userSpaceOnUse">
      <stop stop-color="#DCE9DF"/>
      <stop offset=".52" stop-color="#AFC9C2"/>
      <stop offset="1" stop-color="#91AEB5"/>
    </linearGradient>
    <linearGradient id="leaf" x1="47" y1="33" x2="84" y2="94" gradientUnits="userSpaceOnUse">
      <stop stop-color="#F7FBF4"/>
      <stop offset="1" stop-color="#CADCCF"/>
    </linearGradient>
  </defs>
  <path d="M20 27c0-7.7 6.3-14 14-14h60c7.7 0 14 6.3 14 14v74c0 7.7-6.3 14-14 14H34c-7.7 0-14-6.3-14-14V27Z" fill="#19201E"/>
  <path d="M36 37c10.5 4.4 20.2 14.6 28.2 30.5C72.6 51 81.8 41 92 37c-4.2 24.3-12.6 43.1-27.8 56C48.5 79.9 40.2 61.2 36 37Z" fill="url(#mist)"/>
  <path d="M49.5 43.5c5.7 6.2 10.7 14.4 14.8 24.5 4.2-10.1 9-18.3 14.4-24.5-1.7 17.5-6.2 31.9-14.5 42.6-8.5-10.8-13-25.2-14.7-42.6Z" fill="url(#leaf)" fill-opacity=".88"/>
  <circle cx="64" cy="69" r="4.2" fill="#F4F7F1"/>
</svg>
